<?xml version="1.0" standalone="no"?>
<!DOCTYPE svg PUBLIC "-//W3C//DTD SVG 20010904//EN"
 "http://www.w3.org/TR/2001/REC-SVG-20010904/DTD/svg10.dtd">
<svg version="1.0" xmlns="http://www.w3.org/2000/svg"
 width="719.000000pt" height="411.000000pt" viewBox="0 0 719.000000 411.000000"
 preserveAspectRatio="xMidYMid meet">
<metadata>
Created by potrace 1.16, written by Peter Selinger 2001-2019
</metadata>
<g transform="translate(0.000000,411.000000) scale(0.100000,-0.100000)"
fill="#000000" stroke="none">
<path d="M3420 4064 c-19 -2 -91 -9 -160 -14 -215 -18 -373 -45 -648 -111
-219 -52 -467 -144 -750 -276 -241 -113 -579 -344 -790 -541 -144 -134 -358
-384 -346 -404 3 -4 38 -8 79 -8 l73 0 95 108 c617 702 1609 1112 2688 1112
268 0 615 -34 829 -81 79 -17 254 -60 285 -69 265 -83 407 -137 590 -224 380
-182 721 -433 971 -717 49 -56 95 -108 102 -115 18 -19 162 -20 162 -1 0 25
-172 231 -289 346 -317 311 -727 567 -1185 740 -142 54 -341 115 -476 145 -63
15 -133 31 -155 36 -66 15 -254 43 -405 61 -95 10 -603 21 -670 13z"/>
<path d="M3425 3819 c-243 -14 -566 -67 -765 -124 -30 -9 -68 -20 -85 -24 -73
-20 -250 -83 -365 -130 -391 -161 -785 -431 -1042 -714 -43 -46 -78 -90 -80
-98 -2 -8 8 -14 27 -15 26 -1 49 17 165 131 285 279 532 446 919 619 224 101
574 204 831 245 168 27 220 32 428 43 648 35 1253 -82 1797 -347 324 -158 553
-320 793 -561 111 -111 138 -134 163 -134 17 0 29 5 29 13 0 21 -165 196 -275
293 -364 318 -798 543 -1315 683 -126 34 -161 41 -325 70 -171 30 -265 40
-465 51 -203 11 -229 11 -435 -1z"/>
<path d="M2898 3515 c-150 -41 -267 -168 -334 -360 -24 -70 -28 -95 -28 -200
-1 -111 1 -124 27 -177 33 -68 101 -127 185 -159 46 -18 78 -23 167 -23 124 0
193 16 269 64 26 17 50 30 54 30 5 0 21 -14 38 -31 78 -82 207 -75 296 17 18
18 36 34 40 34 4 0 14 -16 22 -35 16 -38 68 -75 105 -75 36 0 90 20 139 52 44
29 62 34 62 20 0 -25 -24 -129 -33 -139 -7 -10 -280 -13 -1281 -15 l-1271 -3
-2 -40 c0 -22 1 -50 3 -62 l4 -23 1248 0 c686 0 1253 -4 1260 -8 7 -5 11 -23
10 -43 l-3 -34 80 0 79 0 10 35 c5 19 11 37 14 40 2 3 430 7 950 10 l947 5 0
60 0 60 -932 3 -933 2 0 21 c0 36 113 583 123 597 5 6 23 12 40 12 31 0 56 23
57 53 0 13 -8 17 -40 17 -45 0 -45 -1 -29 86 23 133 41 151 109 113 l41 -23
52 52 c60 60 57 66 -32 76 -147 16 -262 -60 -321 -214 -32 -82 -34 -85 -67
-88 -21 -2 -34 -11 -42 -28 -17 -37 -14 -44 19 -44 26 0 33 -6 32 -30 -1 -40
-69 -323 -83 -347 -26 -41 -76 -85 -118 -103 -31 -12 -35 -12 -48 6 -10 13
-13 34 -9 67 6 53 72 373 87 424 6 18 7 37 4 43 -10 17 -321 12 -380 -5 -141
-43 -231 -179 -251 -380 -3 -38 -11 -76 -17 -83 -6 -8 -34 -25 -61 -39 -148
-75 -357 -13 -424 126 -25 53 -22 206 7 285 60 169 166 286 277 310 23 5 37 2
57 -14 32 -26 34 -56 8 -108 l-19 -37 40 -68 c22 -37 46 -67 53 -67 18 0 55
102 62 167 17 164 -136 269 -319 218z m764 -372 c10 -9 18 -29 18 -44 0 -29
-33 -202 -51 -273 -12 -43 -91 -130 -134 -146 -79 -30 -119 91 -79 244 48 187
165 292 246 219z"/>
<path d="M4530 3199 c-102 -46 -187 -184 -198 -321 -10 -141 24 -221 112 -259
90 -39 227 -10 305 64 37 36 91 105 91 119 0 20 -29 5 -59 -32 -67 -84 -145
-112 -218 -80 -35 15 -48 28 -64 65 -31 70 -24 88 36 97 131 19 219 98 226
203 5 75 0 94 -36 130 -33 32 -41 35 -93 35 -36 0 -74 -8 -102 -21z m157 -66
c10 -27 -16 -113 -48 -158 -44 -61 -138 -97 -153 -59 -19 48 80 222 138 244
24 9 54 -4 63 -27z"/>
<path d="M647 2039 c-348 -27 -525 -130 -588 -343 -30 -100 -32 -296 -4 -296
19 0 205 88 205 97 0 4 -10 33 -21 63 -31 77 -31 173 -2 220 37 61 135 103
265 116 82 8 79 22 38 -176 -17 -80 -35 -170 -41 -200 -5 -30 -42 -216 -83
-414 -50 -246 -69 -359 -61 -362 6 -3 58 -3 115 -2 l104 3 8 35 c8 39 52 255
69 340 17 84 16 82 39 70 11 -6 20 -15 20 -20 0 -6 39 -72 87 -148 48 -75 92
-146 98 -157 6 -11 26 -44 44 -73 l33 -52 134 0 c74 0 134 2 134 4 0 2 -32 55
-71 118 -40 62 -80 127 -89 143 -10 17 -70 115 -134 218 -64 104 -116 194
-116 200 0 13 57 74 365 392 110 114 201 212 203 218 2 9 -24 11 -91 9 l-94
-3 -119 -125 c-66 -69 -166 -175 -225 -236 -58 -62 -110 -109 -115 -105 -7 4
-3 45 13 124 12 65 32 165 44 222 11 57 18 110 15 117 -6 15 -15 15 -179 3z"/>
<path d="M5023 1975 c-47 -40 -58 -42 -72 -18 -8 16 -10 15 -14 -7 -14 -69
-28 -172 -31 -226 -3 -71 -9 -84 -40 -84 -49 0 -59 -20 -54 -106 3 -43 1 -92
-4 -109 -4 -16 -17 -73 -28 -125 -31 -143 -76 -259 -140 -357 -13 -20 -17 -34
-10 -38 16 -10 12 -34 -11 -66 -29 -41 -15 -55 28 -29 20 11 37 19 40 17 2 -2
-14 -40 -35 -83 -65 -132 -74 -152 -70 -170 3 -14 8 -13 36 11 53 45 177 308
218 463 19 72 19 151 -1 158 -18 7 -19 34 -2 58 12 17 16 17 72 -2 43 -13 61
-24 63 -38 3 -24 -27 -65 -34 -46 -11 25 -32 11 -42 -30 -31 -123 -34 -144
-64 -350 -20 -142 -20 -150 -3 -193 9 -25 22 -44 29 -42 7 2 15 51 21 127 11
141 30 171 31 53 1 -49 9 -105 23 -151 25 -82 91 -230 122 -274 33 -46 20 -58
-61 -58 -90 0 -114 11 -106 51 7 38 0 37 -44 -6 l-35 -35 -96 20 c-53 10 -120
27 -150 38 -49 17 -54 21 -57 51 -4 34 -15 37 -62 17 -10 -4 -31 6 -57 29 -47
40 -133 156 -133 179 0 13 -11 16 -51 16 -45 0 -55 -4 -81 -32 -68 -73 -66
-146 7 -246 51 -71 62 -53 35 56 -11 42 -5 56 26 71 39 17 52 14 84 -23 17
-18 55 -51 86 -72 44 -30 54 -42 49 -59 -3 -11 -8 -40 -12 -63 -6 -47 -25 -62
-53 -45 -17 11 -90 -4 -90 -18 0 -10 235 -104 315 -127 124 -34 302 -69 310
-60 3 3 -4 22 -16 42 -19 33 -20 40 -9 86 16 68 31 80 93 80 29 0 73 8 99 17
l48 17 30 -29 c34 -32 49 -28 32 10 -19 42 -15 75 8 75 11 0 23 -7 26 -15 11
-27 24 -16 24 19 0 38 -29 85 -100 163 -60 65 -105 159 -121 249 -6 38 -18 84
-25 102 -12 29 -12 38 1 63 9 16 22 75 30 131 8 57 17 114 21 128 21 94 29
123 52 185 14 39 38 85 54 104 52 59 55 75 23 121 l-28 40 53 104 c30 60 69
121 91 142 22 21 39 43 39 50 0 23 -169 123 -211 124 -15 0 -42 -14 -66 -35z
m-477 -1691 c38 -14 112 -35 164 -45 52 -11 99 -24 103 -28 9 -9 -18 -130 -31
-143 -5 -5 -57 7 -118 26 -60 19 -136 43 -169 53 -56 17 -60 20 -59 48 2 42
23 115 33 115 5 0 40 -12 77 -26z"/>
<path d="M5461 1903 c-8 -32 -19 -89 -44 -223 -3 -14 -46 -230 -96 -480 -50
-250 -89 -461 -86 -467 3 -9 35 -13 109 -13 93 0 107 2 115 19 8 14 51 230 51
255 0 3 6 6 14 6 8 0 53 -60 101 -134 97 -151 89 -146 233 -146 51 0 74 4 78
13 5 13 -8 34 -149 253 -38 58 -66 111 -64 118 3 7 35 30 72 51 126 74 207
191 209 301 1 70 -16 109 -56 130 -39 20 -57 18 -126 -17 -45 -22 -84 -54
-146 -120 -59 -64 -85 -86 -89 -75 -3 8 -2 27 3 43 5 15 16 69 26 118 9 50 20
106 25 125 13 55 49 247 49 264 0 14 -17 16 -110 16 l-109 0 -10 -37z m409
-424 c30 -55 -59 -206 -163 -278 -62 -41 -136 -81 -152 -81 -17 0 -19 27 -5
65 22 57 167 233 236 285 46 35 69 38 84 9z"/>
<path d="M2993 1585 c-32 -16 -75 -51 -108 -88 -45 -51 -55 -58 -61 -43 -4 9
-2 28 5 42 6 14 11 43 11 64 l0 40 -110 0 -110 0 -5 -27 c-4 -16 -10 -46 -15
-68 -5 -22 -14 -67 -20 -100 -6 -33 -18 -87 -25 -120 -8 -33 -22 -102 -31
-154 -16 -88 -19 -94 -48 -107 -18 -7 -43 -32 -59 -58 -56 -90 -174 -169 -217
-146 -42 22 -43 42 -9 198 17 81 35 167 39 192 5 25 17 86 29 135 34 147 48
229 43 243 -3 9 -60 12 -241 12 -313 0 -365 -14 -477 -126 -110 -109 -178
-294 -178 -479 0 -76 4 -98 25 -140 49 -97 164 -151 270 -127 79 19 133 48
189 102 28 27 53 50 56 50 3 0 14 -21 25 -47 27 -64 43 -79 98 -98 97 -32 227
18 334 128 37 39 70 68 73 65 3 -4 0 -32 -7 -65 -6 -32 -14 -73 -16 -91 l-5
-33 118 3 118 3 8 35 c4 19 23 123 43 230 20 107 44 213 55 235 24 54 123 161
171 185 46 24 113 26 153 5 32 -17 24 -21 119 55 32 25 57 50 57 57 0 19 -110
56 -180 60 -55 4 -73 0 -117 -22z m-1018 -69 c19 -8 43 -28 53 -45 18 -29 17
-33 -20 -228 -22 -109 -41 -207 -43 -218 -6 -29 -97 -128 -152 -164 -56 -38
-94 -39 -127 -6 -68 68 -51 302 36 481 39 81 132 180 175 187 15 2 32 5 36 6
4 0 23 -5 42 -13z"/>
<path d="M3666 1589 c-49 -12 -130 -52 -170 -86 -42 -35 -103 -117 -133 -178
-38 -79 -73 -229 -73 -319 0 -105 15 -151 70 -208 107 -111 292 -95 420 36 52
54 70 58 70 16 0 -39 62 -104 113 -118 86 -24 214 23 304 111 44 42 54 60 63
104 15 70 8 88 -15 39 -43 -89 -176 -186 -229 -166 -42 15 -42 49 -3 234 20
94 52 247 71 339 20 93 36 177 36 188 0 18 -10 19 -242 18 -134 -1 -260 -5
-282 -10z m231 -102 c38 -38 39 -20 -6 -252 -43 -225 -42 -222 -92 -284 -53
-64 -132 -121 -171 -121 -70 0 -105 84 -94 224 11 155 68 302 149 392 84 92
150 105 214 41z"/>
<path d="M6454 1581 c-23 -4 -71 -22 -107 -39 -127 -63 -225 -212 -266 -404
-35 -164 -22 -272 41 -344 50 -56 99 -76 189 -76 96 0 167 31 240 104 28 28
53 47 57 43 4 -3 13 -25 22 -47 8 -23 31 -54 51 -70 33 -26 44 -29 108 -29 60
0 82 5 137 32 35 18 84 49 108 71 50 43 111 131 122 172 6 25 4 27 -17 24 -14
-2 -32 -17 -44 -36 -59 -98 -152 -172 -217 -172 -32 0 -40 4 -49 26 -11 29 -8
44 41 274 55 254 61 284 70 330 5 25 13 65 19 89 5 25 8 49 5 53 -6 10 -451 8
-510 -1z m169 -72 c37 -19 77 -62 77 -82 0 -17 -24 -150 -49 -267 -5 -25 -15
-73 -21 -107 -11 -52 -21 -71 -64 -119 -111 -125 -198 -146 -243 -61 -21 39
-23 194 -4 277 38 167 127 311 216 351 47 22 59 23 88 8z"/>
<path d="M525 217 c-3 -12 -5 -54 -3 -92 l3 -70 1452 -3 1453 -2 0 95 0 95
-1450 0 -1450 0 -5 -23z"/>
<path d="M5838 193 c-2 -5 -3 -28 -3 -53 l0 -45 540 0 540 0 3 53 3 52 -540 0
c-297 0 -541 -3 -543 -7z"/>
</g>
</svg>
